<?xml version="1.0" encoding="utf-8"?>
<!-- Generator: Adobe Illustrator 16.0.0, SVG Export Plug-In . SVG Version: 6.00 Build 0)  -->
<!DOCTYPE svg PUBLIC "-//W3C//DTD SVG 1.1//EN" "http://www.w3.org/Graphics/SVG/1.1/DTD/svg11.dtd">
<svg version="1.1" id="Vrstva_1" xmlns="http://www.w3.org/2000/svg" xmlns:xlink="http://www.w3.org/1999/xlink" x="0px" y="0px"
	 width="100px" height="100px" viewBox="0 0 100 100" enable-background="new 0 0 100 100" xml:space="preserve">
<g id="Vrstva_2">
	<ellipse fill="#EEEEEE" cx="50" cy="92.707" rx="26.438" ry="7.293"/>
</g>
<g id="Vrstva_4">
	<path fill="#FFFFFF" d="M70.688,10.89L70.688,10.89c-11.258-11.853-29.512-11.853-40.77,0l0,0
		C19.773,21.571,18.633,41.683,27.24,53.77l23.062,35.068L73.363,53.77C81.971,41.683,80.83,21.571,70.688,10.89z M50.582,42.079
		c-5.256,0-9.515-4.487-9.515-10.021c0-5.534,4.259-10.02,9.515-10.02s9.516,4.486,9.516,10.02
		C60.098,37.592,55.838,42.079,50.582,42.079z"/>
	<circle fill="#FFFFFF" cx="50" cy="32" r="19.667"/>
</g>
<g id="Layer_1">
	<path fill="none" stroke="#FFFFFF" stroke-width="3" stroke-miterlimit="10" d="M70.141,12.258L70.141,12.258
		c-11.022-11.49-28.893-11.49-39.915,0l0,0c-9.931,10.354-11.048,29.849-2.622,41.564l22.578,33.996l22.58-33.996
		C81.188,42.106,80.068,22.611,70.141,12.258z"/>
	<g transform="translate(1 1)">
		<g>
			<g>
				<path fill="none" stroke="#FFFFFF" stroke-width="3" stroke-miterlimit="10" d="M33.752,31c0,8.388,6.862,15.25,15.249,15.25
					c8.388,0,15.25-6.862,15.25-15.25c0-8.387-6.862-15.25-15.25-15.25C40.614,15.75,33.752,22.613,33.752,31z M36.8,31
					c0-6.709,5.49-12.2,12.201-12.2s12.2,5.49,12.2,12.2s-5.489,12.2-12.2,12.2C42.291,43.2,36.8,37.709,36.8,31z"/>
				<path fill="none" stroke="#FFFFFF" stroke-width="3" stroke-miterlimit="10" d="M47.477,23.375c0,0.915,0.609,1.525,1.524,1.525
					c3.354,0,6.101,2.745,6.101,6.1c0,0.916,0.61,1.525,1.524,1.525c0.915,0,1.524-0.61,1.524-1.525c0-5.032-4.117-9.15-9.149-9.15
					C48.085,21.85,47.477,22.46,47.477,23.375z"/>
				<path fill="none" stroke="#FFFFFF" stroke-width="3" stroke-miterlimit="10" d="M18.5,31c0,8.235,2.44,13.268,5.948,20.131
					c0.612,1.066,1.069,2.135,1.678,3.354c8.541,17.537,21.502,36.601,21.654,36.752C48.085,91.693,48.543,92,49.001,92
					s0.914-0.307,1.222-0.609c0.15-0.306,13.113-19.367,21.653-36.904c0.61-1.221,1.222-2.288,1.679-3.354
					c3.508-6.863,5.946-11.896,5.946-20.131c0-16.775-13.726-30.5-30.5-30.5C32.226,0.501,18.5,14.225,18.5,31z M21.551,31
					c0-15.097,12.352-27.45,27.45-27.45c15.099,0,27.45,12.353,27.45,27.45c0,7.472-2.288,12.047-5.643,18.758
					c-0.611,1.066-1.067,2.287-1.679,3.355C62.268,67.295,52.507,82.393,49,87.577c-3.508-5.185-13.267-20.435-20.13-34.464
					c-0.61-1.221-1.221-2.289-1.679-3.51C23.839,43.047,21.551,38.472,21.551,31z"/>
			</g>
		</g>
	</g>
</g>
<g id="Vrstva_3" display="none">
	<g transform="translate(1 1)" display="inline">
		<g>
			<g>
				<path fill="#56A502" d="M33.752,31c0,8.388,6.862,15.25,15.249,15.25c8.388,0,15.25-6.862,15.25-15.25
					c0-8.387-6.862-15.25-15.25-15.25C40.614,15.75,33.752,22.613,33.752,31z M36.8,31c0-6.709,5.49-12.2,12.201-12.2
					s12.2,5.49,12.2,12.2s-5.489,12.2-12.2,12.2C42.291,43.2,36.8,37.709,36.8,31z"/>
				<path fill="#56A502" d="M47.477,23.375c0,0.915,0.609,1.525,1.524,1.525c3.354,0,6.101,2.745,6.101,6.1
					c0,0.916,0.61,1.525,1.524,1.525c0.915,0,1.524-0.61,1.524-1.525c0-5.032-4.117-9.15-9.149-9.15
					C48.085,21.85,47.477,22.46,47.477,23.375z"/>
				<path fill="#56A502" d="M18.5,31c0,8.235,2.44,13.268,5.948,20.131c0.612,1.066,1.069,2.135,1.678,3.354
					c8.541,17.537,21.502,36.601,21.654,36.752C48.085,91.693,48.543,92,49.001,92s0.914-0.307,1.222-0.609
					c0.15-0.306,13.113-19.367,21.653-36.904c0.61-1.221,1.222-2.288,1.679-3.354c3.508-6.863,5.946-11.896,5.946-20.131
					c0-16.775-13.726-30.5-30.5-30.5C32.226,0.501,18.5,14.225,18.5,31z M21.551,31c0-15.097,12.352-27.45,27.45-27.45
					c15.099,0,27.45,12.353,27.45,27.45c0,7.472-2.288,12.047-5.643,18.758c-0.611,1.066-1.067,2.287-1.679,3.355
					C62.268,67.295,52.507,82.393,49,87.577c-3.508-5.185-13.267-20.435-20.13-34.464c-0.61-1.221-1.221-2.289-1.679-3.51
					C23.839,43.047,21.551,38.472,21.551,31z"/>
			</g>
		</g>
	</g>
</g>
<g id="Vrstva_3_1_">
	<g transform="translate(1 1)">
		<g>
			<g>
				<path fill="#B37B40" d="M33.752,31c0,8.388,6.862,15.25,15.249,15.25c8.388,0,15.25-6.862,15.25-15.25
					c0-8.387-6.862-15.25-15.25-15.25C40.614,15.75,33.752,22.613,33.752,31z M36.8,31c0-6.709,5.49-12.2,12.201-12.2
					s12.2,5.49,12.2,12.2s-5.489,12.2-12.2,12.2C42.291,43.2,36.8,37.709,36.8,31z"/>
				<path fill="#B37B40" d="M47.477,23.375c0,0.915,0.609,1.525,1.524,1.525c3.354,0,6.101,2.745,6.101,6.1
					c0,0.916,0.61,1.525,1.524,1.525c0.915,0,1.524-0.61,1.524-1.525c0-5.032-4.117-9.15-9.149-9.15
					C48.085,21.85,47.477,22.46,47.477,23.375z"/>
				<path fill="#B37B40" d="M18.5,31c0,8.235,2.44,13.268,5.948,20.131c0.612,1.066,1.069,2.135,1.678,3.354
					c8.541,17.537,21.502,36.601,21.654,36.752C48.085,91.693,48.543,92,49.001,92s0.914-0.307,1.222-0.609
					c0.15-0.306,13.113-19.367,21.653-36.904c0.61-1.221,1.222-2.288,1.679-3.354c3.508-6.863,5.946-11.896,5.946-20.131
					c0-16.775-13.726-30.5-30.5-30.5C32.226,0.501,18.5,14.225,18.5,31z M21.551,31c0-15.097,12.352-27.45,27.45-27.45
					c15.099,0,27.45,12.353,27.45,27.45c0,7.472-2.288,12.047-5.643,18.758c-0.611,1.066-1.067,2.287-1.679,3.355
					C62.268,67.295,52.507,82.393,49,87.577c-3.508-5.185-13.267-20.435-20.13-34.464c-0.61-1.221-1.221-2.289-1.679-3.51
					C23.839,43.047,21.551,38.472,21.551,31z"/>
			</g>
		</g>
	</g>
</g>
</svg>
